Coordinates
version=1
nRows=9
nColumns=36
inDegrees=yes

Units are S.I. units (second, meters, Newtons, ...)
If the header above contains a line with 'inDegrees', this indicates whether rotational values are in degrees (yes) or radians (no).

endheader
time	pelvis_tilt	pelvis_list	pelvis_rotation	pelvis_tx	pelvis_ty	pelvis_tz	hip_flexion_r	hip_adduction_r	hip_rotation_r	knee_angle_r	knee_angle_r_beta	ankle_angle_r	subtalar_angle_r	mtp_angle_r	hip_flexion_l	hip_adduction_l	hip_rotation_l	knee_angle_l	knee_angle_l_beta	ankle_angle_l	subtalar_angle_l	mtp_angle_l	lumbar_extension	lumbar_bending	lumbar_rotation	arm_flex_r	arm_add_r	arm_rot_r	elbow_flex_r	pro_sup_r	arm_flex_l	arm_add_l	arm_rot_l	elbow_flex_l	pro_sup_l
      4.01666670	     -7.50925221	      2.82007186	      5.96008982	     -0.35987605	      1.35478019	     -0.02017807	      5.32652938	     -1.48660488	      7.55124448	      5.25287355	      0.09167994	     16.80422450	     -3.74609585	     -7.49999987	      6.77402849	      3.04702186	      6.35778548	      5.20292225	      0.09080812	      9.36197586	     -6.39540342	     -7.49999987	      3.73096111	     -4.23891589	      3.26761114	    -23.98479466	    -16.69678759	      7.59992152	     75.09348459	     85.27436083	    -21.77651281	    -19.70240894	     15.76296670	     82.09160860	     93.11220406
      4.03333330	     -7.63623492	      2.81092865	      6.06176284	     -0.35938954	      1.35994866	     -0.02002605	      5.55651678	     -1.53254803	      7.41680027	      5.35281113	      0.09342418	     16.81576994	     -3.81124215	     -7.49999987	      7.08819446	      3.06904036	      6.35269177	      5.17001002	      0.09023370	      9.24438648	     -6.33765332	     -7.49999987	      3.49470568	     -4.22162017	      3.06949391	    -23.70597629	    -16.73738281	      7.58008176	     75.11687965	     85.29420241	    -21.41868820	    -19.61773256	     15.77031501	     82.05498514	     93.12191123
      4.05000000	     -7.68482252	      2.76512663	      6.11649037	     -0.35222306	      1.35720223	     -0.01775953	      5.62812273	     -1.45837335	      7.33769922	      5.33354453	      0.09308791	     16.81879397	     -3.85033204	     -7.49999987	      7.14903435	      2.99992221	      6.31923008	      5.15951124	      0.09005046	      9.30159840	     -6.36384680	     -7.49999987	      3.38284301	     -4.25784939	      3.10058127	    -23.65026055	    -16.72401256	      7.58723485	     75.13168070	     85.29761655	    -21.44518654	    -19.65879969	     15.77524024	     82.02515324	     93.12115857
      4.06666670	     -7.95090490	      2.63696648	      6.19856092	     -0.35892393	      1.35906878	     -0.01366733	      6.08275358	     -1.27040592	      7.19188821	      5.47119633	      0.09549039	     16.58496393	     -4.10590629	     -7.49999987	      7.55138079	      2.85527800	      6.34356627	      5.48348061	      0.09570479	      9.44256567	     -6.28440483	     -7.49999987	      3.45146616	     -4.29318448	      2.99264938	    -23.21844951	    -16.53732866	      7.70814593	     74.81417270	     85.61627486	    -21.25489537	    -19.99688373	     15.89894141	     82.03375317	     93.38872287
      4.08333330	     -7.78807840	      2.57816534	      6.19768055	     -0.35208881	      1.35987505	     -0.01798444	      5.69188984	     -1.21775634	      6.99397548	      5.26987628	      0.09197669	     16.41805141	     -4.07336035	     -7.49999987	      7.29285322	      2.76847828	      6.29680703	      5.66284615	      0.09883531	      9.53343189	     -6.19698424	     -7.49999987	      3.12036567	     -4.23368421	      2.80286970	    -23.21504606	    -16.46208002	      7.59539735	     74.88797703	     85.84397981	    -21.49638163	    -19.92239875	     15.71824151	     82.04543222	     93.54291236
      4.10000000	     -7.88358834	      2.56598059	      5.97743582	     -0.35924986	      1.35929828	     -0.02021716	      5.78254580	     -1.29667133	      6.69663553	      5.27525442	      0.09207056	     16.28364039	     -4.15845189	     -7.49999987	      7.30130803	      2.80892300	      6.11343586	      5.66674348	      0.09890333	      9.55500264	     -6.29284490	     -7.49999987	      3.04282600	     -4.19673957	      2.85791320	    -22.98365157	    -16.60093411	      7.50851907	     74.92589147	     85.85792225	    -21.44236654	    -19.81646331	     15.73777461	     82.08227037	     93.55569602
      4.11666670	     -7.96773658	      2.52456217	      5.72805124	     -0.35843420	      1.36223493	     -0.01357632	      5.86717332	     -1.19873390	      6.56482398	      5.14490889	      0.08979560	     16.22885068	     -4.17954909	     -7.49999987	      7.38732834	      2.72175663	      5.98288961	      5.68167420	      0.09916392	      9.61221024	     -6.41238318	     -7.49999987	      2.86638403	     -4.27016266	      2.94742034	    -22.76645054	    -16.53892997	      7.52340455	     74.94121700	     85.87438215	    -21.39210811	    -19.85080706	     15.66881719	     82.02741635	     93.55976880
      4.13333330	     -8.22255171	      2.55999922	      5.67491765	     -0.35901633	      1.35821231	     -0.01991317	      6.24570575	     -1.26679629	      6.48079065	      5.00145523	      0.08729186	     16.02772981	     -3.83211373	     -7.49999987	      7.72188326	      2.85717856	      6.07034422	      5.83286582	      0.10180271	      9.63072203	     -6.63333415	     -7.49999987	      2.92054674	     -4.40817414	      3.00819931	    -22.60093001	    -16.72870431	      7.73269952	     74.82940650	     85.71030193	    -21.52183381	    -19.70369831	     15.43124066	     82.28715589	     93.30292530
      4.15000000	     -8.42953511	      2.59275082	      5.79227077	     -0.35897253	      1.35830102	     -0.02015257	      6.50252820	     -1.40153475	      6.42831322	      4.88079776	      0.08518599	     15.85965912	     -3.68654144	     -7.49999987	      8.05860277	      3.00380054	      6.51199708	      5.99498331	      0.10463220	      9.49379338	     -6.95486620	     -7.49999987	      2.86408963	     -4.54162241	      2.64034292	    -22.60930449	    -17.01637452	      7.88360623	     74.93899925	     86.94556499	    -22.02700108	    -19.35598957	     14.63898796	     82.86076902	     94.63521429
